/* XPM */
static char *aa77fef5c6e84c97da11c4598ebaf633NUpyjrHCt8pjUyCD[] = {
/* columns rows colors chars-per-pixel */
"32 32 11 1 ",
"  c None",
". c black",
"X c #4C2E19",
"o c #9D1818",
"O c #E62222",
"+ c #9B6742",
"@ c #FC5B5B",
"# c #6C7EE9",
"$ c gray70",
"% c #A9B5FF",
"& c white",
/* pixels */
"          ............          ",
"          ............          ",
"          ..XX++++XX..          ",
"          ..XX++++XX..          ",
"        ....XX++++XX....        ",
"        ....XX++++XX....        ",
"        ..%%$$&&&&$$%%..        ",
"        ..%%$$&&&&$$%%..        ",
"        ..%%##%%%%##%%..        ",
"        ..%%##%%%%##%%..        ",
"        ....%%&&&&%%....        ",
"        ....%%&&&&%%....        ",
"          ..%%&&&&%%..          ",
"          ..%%&&&&%%..          ",
"          ..%%&&&&%%..          ",
"          ..%%&&&&%%..          ",
"        ..%%%%@@@@%%%%..        ",
"        ..%%%%@@@@%%%%..        ",
"      ..%%%%@@@@@@OO%%%%..      ",
"      ..%%%%@@@@@@OO%%%%..      ",
"    ..##%%OOOOOOOOOOoo%%##..    ",
"    ..##%%OOOOOOOOOOoo%%##..    ",
"    ..##OOOOOOoooooooooo##..    ",
"    ..##OOOOOOoooooooooo##..    ",
"    ..##oooooooooooooooo##..    ",
"    ..##oooooooooooooooo##..    ",
"    ..##oooooooooooooooo##..    ",
"    ..##oooooooooooooooo##..    ",
"    ..####################..    ",
"    ..####################..    ",
"      ....................      ",
"      ....................      "
};
