/* XPM */
static char *e24d10bc098f4fafd094c1481b34db1cmTsQcxCLeFpgBzW9[] = {
/* columns rows colors chars-per-pixel */
"32 32 13 1 ",
"  c None",
". c #2A1D0D",
"X c #572B10",
"o c #2F6878",
"O c #BD1332",
"+ c #803520",
"@ c #E08128",
"# c #F2AC29",
"$ c #3C9F9C",
"% c #66D1A6",
"& c #F5C187",
"* c #F5DDA6",
"= c #C09DFC",
/* pixels */
"                                ",
"                                ",
"                                ",
"                                ",
"                                ",
"                        XX      ",
"    O           $$     X++X     ",
"   O           $$$$    X+XX     ",
"   O          $$oo$$   +XX+     ",
"   @@         $$o o$    X++     ",
"   @#         %$$  $     XX     ",
"              %%$$       X+     ",
"            o.$$$.       X+     ",
"        $%$$oo...ooo$    +X     ",
"         $%%$$ooooo$$$$  XX     ",
"          $$%%$$oo$$$$   X+     ",
"             $$$$$$$$    +X     ",
"             .=.=.       X      ",
"             $$$$$o      X      ",
"            oo$$$oo&     X      ",
"           $$ooo$$$&&    X      ",
"          &&$$$$$$&&&&$o$$      ",
"         **&&&&&&&*&&&$o$$      ",
"        $** &******&  $ $$      ",
"       o$$$ .******.     X      ",
"      $ooo  &......&     X      ",
"      $$$$  &**&*&*&     X      ",
"      $$ $  &**&*&*      X      ",
"           $$$$  $$$     X      ",
"            oo   oo      X      ",
"          .$$$...$$$.....X      ",
"           .........            "
};
