/* XPM */
static char *_c995ed9b43a4a20a10ee644bc4adb5cv6jTtY8LEnYgOqXT[] = {
/* columns rows colors chars-per-pixel */
"32 32 16 1 ",
"  c None",
". c #163831",
"X c #572B10",
"o c #403022",
"O c #3D5C1E",
"+ c #20444F",
"@ c #2F6878",
"# c #803520",
"$ c #AB561D",
"% c #EF692F",
"& c #69802A",
"* c #F2AC29",
"= c #E3936B",
"- c #3C9F9C",
"; c #66D1A6",
": c #F5C187",
/* pixels */
"                                ",
"                                ",
"                  %%*           ",
"                 OO%%*          ",
"              **%%O %%*         ",
"             *:::*%  %*         ",
"            :*&:&*::            ",
"            % :::%:             ",
"          -;  ::: %  #          ",
"         ;@-;  ==    ;#         ",
"         @;##OOOOOO  ; #        ",
"          ##+++++OOO ; #        ",
"           =+OOOO++OO;  #       ",
"          :==++++OO+OO  #       ",
"         ::  ##X++++++O #       ",
"         ::   XXXX...++ #       ",
"          ::  ####...== #       ",
"           ::XX###. .;:::       ",
"            :##XXX  .; ::       ",
"            #######  ; #        ",
"            ###X#### ; #        ",
"            XXXX##XX ; #        ",
"            === XX== ;#         ",
"            ::    :: #          ",
"           ::      ::           ",
"           ::      ::           ",
"          ###       ##          ",
"         XXX        XX#         ",
"         ###         ##         ",
"         $#          #$$        ",
"        ###ooooooooooo###       ",
"          ooooooooooooo         "
};
