/* XPM */
static char *_46474ba52964974b983690c14583e59GV6QbCDOkm07ve0a[] = {
/* columns rows colors chars-per-pixel */
"25 31 227 2 ",
"   c None",
".  c #3F3E3A",
"X  c #42100F",
"o  c #55110D",
"O  c #660B08",
"+  c #7B0C0C",
"@  c #671717",
"#  c #791714",
"$  c #78170E",
"%  c #442C06",
"&  c #6A2315",
"*  c #782A1C",
"=  c #741F24",
"-  c #5A3A29",
";  c #493631",
":  c #443B34",
">  c #4D3B3B",
",  c #483A36",
"<  c #533938",
"1  c #652926",
"2  c #722925",
"3  c #6A322C",
"4  c #623831",
"5  c #7B3735",
"6  c #773525",
"7  c #5B4719",
"8  c #544E15",
"9  c #584326",
"0  c #47413B",
"q  c #4D443B",
"w  c #55443B",
"e  c #58543B",
"r  c #64493C",
"t  c #774639",
"y  c #695437",
"u  c #70513F",
"i  c #714D29",
"p  c #6F7431",
"a  c #797637",
"s  c #746732",
"d  c #4A3F45",
"f  c #4B4243",
"g  c #5A4A4D",
"h  c #5A4643",
"j  c #4F5B4F",
"k  c #5A5647",
"l  c #5B4F56",
"z  c #5D5155",
"x  c #634A4A",
"c  c #654C47",
"v  c #7C4B42",
"b  c #724A48",
"n  c #635543",
"m  c #67584A",
"M  c #765549",
"N  c #635255",
"B  c #6B5659",
"V  c #6D5654",
"C  c #755D58",
"Z  c #624D52",
"A  c #74634E",
"S  c #786749",
"D  c #777449",
"F  c #676558",
"G  c #776958",
"H  c #7C7259",
"J  c #797858",
"K  c #656541",
"L  c #535A60",
"P  c #536971",
"I  c #686766",
"U  c #7C6363",
"Y  c #7B6B66",
"T  c #76776B",
"R  c #6C7879",
"E  c #777576",
"W  c #88140E",
"Q  c #871915",
"!  c #941713",
"~  c #8E2819",
"^  c #81302D",
"/  c #9A3936",
"(  c #862F2F",
")  c #A93835",
"_  c #BB3633",
"`  c #B92E27",
"'  c #C73835",
"]  c #88453C",
"[  c #9C453B",
"{  c #AF4134",
"}  c #CC413B",
"|  c #8F3D41",
" . c #854A48",
".. c #984E48",
"X. c #83534D",
"o. c #89574B",
"O. c #95514A",
"+. c #93594C",
"@. c #885B54",
"#. c #905C51",
"$. c #B44340",
"%. c #BE554F",
"&. c #AF5D59",
"*. c #897948",
"=. c #84665B",
"-. c #8A665B",
";. c #9A6759",
":. c #8B7656",
">. c #916A47",
",. c #AC615E",
"<. c #9D5F62",
"1. c #836B65",
"2. c #856967",
"3. c #996B66",
"4. c #84726A",
"5. c #8A736C",
"6. c #897768",
"7. c #92736C",
"8. c #97786B",
"9. c #936D72",
"0. c #8C7574",
"q. c #887877",
"w. c #937972",
"e. c #9A7C73",
"r. c #947478",
"t. c #93787A",
"y. c #A86B67",
"u. c #B66761",
"i. c #AA766B",
"p. c #A37573",
"a. c #BA7872",
"s. c #C64946",
"d. c #C95E56",
"f. c #78857E",
"g. c #898659",
"h. c #98855C",
"j. c #929054",
"k. c #A8905B",
"l. c #89857D",
"z. c #998679",
"x. c #948E75",
"c. c #A88979",
"v. c #AD9479",
"b. c #BE9C75",
"n. c #B3977A",
"m. c #B2906C",
"M. c #B7A873",
"N. c #BDBF74",
"B. c #ADAA75",
"V. c #CBAA7A",
"C. c #5A7E96",
"Z. c #677081",
"A. c #7B7883",
"S. c #7C8685",
"D. c #888687",
"F. c #998B8A",
"G. c #85918F",
"H. c #999286",
"J. c #928B94",
"K. c #AB8E8C",
"L. c #A48886",
"P. c #B28684",
"I. c #AB9788",
"U. c #BE9C84",
"Y. c #B69688",
"T. c #A79897",
"R. c #BB9990",
"E. c #A9A885",
"W. c #BBA886",
"Q. c #ACA298",
"!. c #AA9DA6",
"~. c #9EACAF",
"^. c #AAA3A6",
"/. c #A3AEB5",
"(. c #BDB5B9",
"). c #A9B2AF",
"_. c #C99A8B",
"`. c #C8A888",
"'. c #CBB188",
"]. c #CCAF91",
"[. c #D2AC95",
"{. c #DCAB9A",
"}. c #D7B190",
"|. c #D7B4A8",
" X c #C8B6B5",
".X c #E7BBA0",
"XX c #E7DA94",
"oX c #F1E39C",
"OX c #CDC5BA",
"+X c #D8CEAB",
"@X c #E4C3A0",
"#X c #F1CEAE",
"$X c #FCDAA9",
"%X c #FFCEBE",
"&X c #FACAB6",
"*X c #FBD5B4",
"=X c #FEDDB2",
"-X c #FCDDBC",
";X c #F7D2B5",
":X c #FEE2AC",
">X c #FFE3B9",
",X c #8AB0C5",
"<X c #B9BCC6",
"1X c #CAC8C8",
"2X c #D4C8CC",
"3X c #CED5DF",
"4X c #D1D6D8",
"5X c #C4CBD3",
"6X c #FFDEC0",
"7X c #E1DBC5",
"8X c #FFE4C2",
"9X c #ECEFDC",
"0X c #F4EED2",
"qX c #CAE6F1",
"wX c #F4EEED",
"eX c #F9E8E7",
"rX c #FDFBE4",
"tX c #FDF6EB",
"yX c #F8F6E9",
"uX c #FFEDF5",
"iX c #F4F1F3",
"pX c #FEF4F4",
"aX c #FDFBF4",
"sX c #FCF3FC",
"dX c #FCFCFA",
"fX c #F3FAFC",
"gX c #E7E6E4",
/* pixels */
"          dXwXpXpXt.< , , F.aXtX X; . , I fX      ",
"        I : f : > > g 2.Y k 0 : h Y G G aXwXsXsX  ",
"          I k E q.H.G x U 0.Y G w.C , > ; d d l   ",
"        I : q m m 4.K.K.2.r.K.r.1.C 5.I.4.N l     ",
"      z N q.5.6.5.7.r.r.9.r.L.L.w.z.L.1.V ; d N   ",
"        V ; r 6.z.F.L.t.9.r.e.5.7.6.z.8.w.5.0.N g ",
"      N b 7.8.6.I.z.2.U 0.0.w.c.Y.3.8.8.R.7.C t.B ",
"    g B 9.y.#. .;.@.2.K.K.2.9._.Y.M 3 3.p.R.1.< > ",
"  d B 9.5 = O ..O.3 X.P.P.<.y.a.;.5 3 @.i.P.C 5.  ",
"    Z 4 @ ) ~ ( ^ ^ <.p.p.b | a.O.6 / & i.;.; m   ",
"    b v @ + + O @  . .-.=.@.@.+.O.O.] ^ ;.t e q   ",
"  g b O.Q ) $.) ,.X.X.@.M n.`.m.%X&X&X_.;.].M     ",
"  b X.= W ' { &.i.@.X.n S W.>Xb.3 9 >.&X.X`.A     ",
"  d 3 W _ } d.u.y.|.;XY.8.W.6X6Xn.y *X6X*X].m     ",
"  h 5 Q ` ' d.u.p.|.U.U.v.`.-X8XW.9 `.*X*X].n     ",
"    5 W ' } %.,.@.Y.n.].'.V.>X>XM.% >.*X#Xc.m     ",
"    | W ' } ) ,.-.r 8.{.b.V.:X:XV.i >.=X}.S F     ",
"    = + ` ! / O.b M e.n.}.&X:X:X$X:X:X}.v.A tX    ",
"    2 # { ~ 2 t r n =.P._.[..X@X'.M.k.u S tXpX    ",
"    & o [ & {.=.F h C 2.u - - - 7 7 7 *.rXyX      ",
"      3 o X  XT.!.(.2XeXaXrXaXqX7X+XB.k.0XtX      ",
"        eXuXT.!.(. X2XOX(.1XqXqXdX0XB.j.H yX      ",
"        sXJ.q.!.F.E D.l.L P ,XqX<Xl.B.K rX        ",
"        J.A.!.2XF.l.I.Q.R P S.S.Z.f.B.f.yX        ",
"      fXG.Z.<XpXT.=.:.J k j P P I T G G pX        ",
"      G.R /.4XiXQ.S :.h.s p f.K k e k T           ",
"      S.R /.3XiXT.G h.h.s 8 *.a p p g.J           ",
"      G.R ~.5XfXT.k 7 7 k.XXoXXXN.j.D             ",
"      S.R ).4XwX^.OXx.D k.m.M.:.8 J rX            ",
"      dXD.T ^.gXQ.OXx.y S :.:.y x.yX              ",
"      wXdXJ.q.E 1XwXH.e A :.8.=.l.                "
};
